# xmcd
#
# Track frame offsets: 
#        150
#        17563
#        36730
#        54386
#        68750
#        76143
#        89130
#        101754
#        114151
#        136723
#        151723
#        170546
#        195978
#        214398
#
# Disc length: 3040 seconds
#
# Revision: 0
# Processed by: cddbd v1.5.1PL0 Copyright (c) Steve Scherf et al.
# Submitted via: ExactAudioCopy v0.95a5
#
DISCID=b40bde0e
DTITLE=Jorma Kaukonen - 1964 Cabale Creamery Berkeley, CA
DYEAR=1964
DGENRE=blues
TTITLE0=Great Change
TTITLE1=Follow The Drinking Gourd
TTITLE2=Uncle Sam's Blues
TTITLE3=Candyman
TTITLE4=Dancin'
TTITLE5=Pawnshop Blues
TTITLE6=Nobody Knows You When You're Down And Out
TTITLE7=Let Us Get Together
TTITLE8=Tell Me Mama
TTITLE9=Never Happen No More
TTITLE10=Trouble In Mind
TTITLE11=Follow The Drinking Gourd >
TTITLE12=Keep On Truckin' Mama
TTITLE13=I'll Be Allright With Ya So
EXTD=
EXTT0=
EXTT1=
EXTT2=
EXTT3=
EXTT4=
EXTT5=
EXTT6=
EXTT7=
EXTT8=
EXTT9=
EXTT10=
EXTT11=
EXTT12=
EXTT13=
PLAYORDER=
